<?xml version="1.0" encoding="UTF-8" standalone="no"?>
<!DOCTYPE svg PUBLIC "-//W3C//DTD SVG 1.1//EN" "http://www.w3.org/Graphics/SVG/1.1/DTD/svg11.dtd">
<svg width="100%" height="100%" viewBox="0 0 5050 1531" version="1.1" xmlns="http://www.w3.org/2000/svg" xmlns:xlink="http://www.w3.org/1999/xlink" xml:space="preserve" xmlns:serif="http://www.serif.com/" style="fill-rule:evenodd;clip-rule:evenodd;stroke-linejoin:round;stroke-miterlimit:2;">
    <path d="M1438.21,1166.19C1426.24,1184.09 1414.82,1202.38 1402.19,1219.79C1377.74,1253.48 1349.92,1284.32 1319.93,1313.18C1286.08,1345.76 1249.57,1375.08 1210.31,1400.88C1163.8,1431.44 1114.61,1456.79 1062.58,1476.62C1011.56,1496.06 959.05,1509.64 905.126,1518.16C855.646,1525.99 805.825,1527.75 755.984,1525.84C688.017,1523.24 621.561,1511.03 556.74,1490.09C486.73,1467.47 421.314,1435.57 360.556,1394.1C330.329,1373.46 301.765,1350.78 274.756,1326.04C228.424,1283.59 187.79,1236.32 153.118,1183.97C118.476,1131.66 90.743,1075.88 70.112,1016.58C52.281,965.328 40.175,912.836 33.475,858.943C28.289,817.227 26.802,775.369 28.642,733.571C31.581,666.813 43.186,601.422 63.773,537.621C85.754,469.496 116.571,405.783 156.413,346.423C177.534,314.954 201.057,285.356 226.682,257.361C285.144,193.492 352.357,140.91 428.499,99.79C475.373,74.476 524.429,54.413 575.596,39.409C615.181,27.802 655.413,19.39 696.289,14.339C723.963,10.92 751.79,8.664 779.761,9.257C800.397,9.694 821.1,8.917 841.665,10.297C877.411,12.696 912.875,17.59 947.998,24.984C1044.46,45.293 1133.47,83.159 1215.38,137.828C1247.75,159.432 1278.16,183.557 1306.84,209.911C1348.62,248.311 1385.8,290.685 1418.14,337.315C1418.51,337.859 1419,338.331 1419.5,339.872C1419.21,341.503 1418.7,341.869 1418.02,342.007C1384.59,305.706 1348.4,272.51 1308.01,243.993C1247.78,201.478 1182.39,169.606 1111.81,148.412C1072.91,136.735 1033.18,128.941 992.874,124.375C976.083,122.472 959.102,122.217 942.203,121.304C932.919,120.803 923.614,119.967 914.339,120.176C846.59,121.704 780.13,131.283 715.394,151.947C656.158,170.855 600.5,197.182 548.668,231.489C518.699,251.326 490.608,273.557 464.1,297.909C412.451,345.356 369.756,399.785 335.801,461.017C304.528,517.413 282.619,577.317 269.656,640.578C259.533,689.98 255.972,739.852 257.81,790.079C259.722,842.309 268.738,893.453 283.773,943.563C297.003,987.656 315.066,1029.66 337.43,1069.82C360.298,1110.89 387.599,1148.81 418.782,1184.02C445.98,1214.72 475.935,1242.4 508.325,1267.49C548.417,1298.54 591.493,1324.66 637.597,1345.84C685.463,1367.82 735.15,1384.09 786.817,1394.33C817.784,1400.47 848.953,1405.08 880.548,1406.04C902.158,1406.7 923.827,1407.96 945.391,1407.07C991.572,1405.16 1037.23,1398.85 1082.16,1387.63C1130.72,1375.51 1177.45,1358.38 1222.04,1335.78C1272.95,1309.97 1320,1278.33 1362.84,1240.44C1389.06,1217.25 1413.2,1192.12 1436.6,1165.41C1437.7,1165.66 1437.95,1165.92 1438.21,1166.19Z" style="fill:rgb(254,254,254);fill-rule:nonzero;"/>
    <path d="M3565.66,804C3565.66,771.007 3566.17,739.002 3565.42,707.027C3565.11,693.902 3562.68,680.722 3560.07,667.797C3558.65,660.767 3555.38,653.94 3552.01,647.507C3542.76,629.825 3525.41,625.062 3508.26,635.537C3501.52,639.651 3495.49,644.912 3488.74,649.941C3485.94,645.634 3483.1,641.274 3480.04,636.564C3528.38,585.385 3578.71,536.535 3624.04,482.523C3686,519.905 3721.59,574.036 3730.7,646.589C3732.92,644.798 3734.22,643.911 3735.32,642.831C3749.63,628.888 3763.91,614.923 3778.19,600.953C3809.37,570.445 3840.51,539.89 3871.75,509.443C3880.95,500.471 3890.45,491.798 3900.26,482.571C3932.3,542.276 3975.59,590.117 4035.29,622.623L4035.29,636.711C4030.84,636.911 4026.65,637.075 4022.47,637.292C3998.34,638.543 3983.7,653.588 3983.69,677.537C3983.64,788.178 3983.63,898.82 3983.72,1009.46C3983.73,1025.79 3987.76,1041.24 3997.78,1054.31C4007.78,1067.36 4016.78,1071.17 4032.15,1062.26C4039.31,1058.11 4046.28,1053.63 4054.44,1048.62C4056.47,1053.24 4058.38,1057.6 4060.51,1062.45C4006.24,1114.61 3950.64,1165.18 3900.29,1222.14C3873.07,1199.69 3847.28,1176.92 3832.6,1144.41C3825.27,1128.21 3821.84,1110.86 3819.99,1093.35C3818.42,1078.53 3817.82,1063.55 3817.75,1048.64C3817.15,926.068 3816.87,803.492 3816.16,680.918C3816.11,670.761 3813.87,660.589 3812.33,650.474C3809.32,630.784 3787.79,625.611 3774.45,631.642C3768.51,634.327 3762.69,638.027 3757.98,642.495C3749.8,650.25 3742.77,659.206 3734.76,667.161C3731.03,670.875 3730.27,674.77 3730.27,679.646C3730.36,792.287 3730.24,904.928 3730.49,1017.57C3730.51,1028.41 3732.13,1039.34 3733.96,1050.06C3736.75,1066.46 3746.37,1077.55 3762.22,1083.01C3765.95,1084.3 3769.73,1085.48 3773.91,1086.86L3773.91,1097.18C3715.07,1123.7 3675.56,1171.02 3637.89,1221.74C3635.41,1218.08 3633.55,1215.48 3631.83,1212.8C3614.2,1185.34 3595.19,1158.99 3571.87,1135.93C3554.44,1118.71 3535.19,1104.29 3512.2,1094.24L3512.2,1081.28C3520.61,1079.61 3528.76,1078.32 3536.73,1076.32C3549.83,1073.03 3558.44,1064.76 3560.82,1051.32C3562.95,1039.29 3565.37,1027.09 3565.45,1014.95C3565.89,944.968 3565.66,874.983 3565.66,804Z" style="fill:rgb(254,254,254);fill-rule:nonzero;"/>
    <path d="M2988.34,810C2988.34,852.663 2988.36,894.327 2988.33,935.99C2988.32,956.584 2986.32,977.015 2983.82,997.451C2979.6,1031.85 2960.64,1054.65 2929.47,1067.88C2911.17,1075.64 2892.34,1082.16 2874.02,1089.9C2818.49,1113.37 2771.32,1148.12 2733.77,1195.49C2727.18,1203.8 2721.39,1212.75 2715.11,1221.59C2703.98,1208.85 2693.08,1196 2681.78,1183.51C2644.15,1141.89 2603.46,1103.77 2554.93,1074.9C2543.54,1068.13 2531.57,1062.33 2518.93,1055.58C2518.73,1053.61 2518.44,1050.75 2518.14,1047.82C2519.14,1047.12 2519.84,1046.36 2520.69,1046.08C2529.19,1043.29 2537.78,1040.75 2546.24,1037.81C2564.87,1031.35 2574.8,1018.06 2576.29,998.49C2576.92,990.228 2577.6,981.941 2577.6,973.664C2577.69,871.006 2577.58,768.348 2577.83,665.69C2577.85,658.181 2575.71,654.008 2569.27,649.733C2536.84,628.195 2520.01,596.732 2514.4,558.879C2510.31,531.306 2511.33,503.799 2519.88,477.179C2533.58,434.453 2559.14,401.223 2600.73,382.147C2623.81,371.562 2648.43,368.376 2673.61,369.645C2682.5,370.093 2691.34,371.505 2700.89,372.552L2700.89,389.338C2688.53,388.574 2676.35,387.504 2664.15,387.147C2647.78,386.667 2631.75,388.08 2617.56,397.768C2604.05,406.997 2597.77,419.653 2598.31,435.929C2598.62,445.259 2602.02,452.917 2610.43,457.372C2622.17,463.587 2634.2,469.232 2646.03,475.274C2656.38,480.559 2666.92,485.556 2676.85,491.557C2701.14,506.249 2716.53,527.711 2721.57,555.687C2724.72,573.256 2726.22,591.13 2728.3,608.887C2729.17,616.312 2729.62,623.787 2730.31,631.688C2788.22,582.268 2845.7,533.221 2903.71,483.725C2904.86,485.091 2906.31,486.722 2907.66,488.43C2919.38,503.264 2931.01,518.169 2942.81,532.941C2955.05,548.278 2966.53,564.035 2974.68,582.082C2982.76,599.999 2984.9,619.037 2986.29,638.23C2990.42,695.107 2987.47,752.078 2988.34,810M2760.61,627.544C2752.54,633.945 2744.72,640.711 2736.29,646.612C2730.99,650.326 2729.52,654.568 2729.53,660.836C2729.72,766.782 2729.71,872.728 2729.55,978.673C2729.54,984.437 2731.03,988.558 2735.28,992.567C2765.83,1021.35 2792.7,1053.38 2817.8,1086.95C2818.79,1088.28 2820.13,1089.34 2821.88,1091.1C2822.12,1088.92 2822.32,1087.93 2822.32,1086.95C2822.33,950.683 2822.37,814.419 2822.27,678.156C2822.26,663.473 2819.74,649.042 2814.29,635.359C2807.28,617.799 2792.85,608.851 2772.65,619.71C2768.86,621.743 2765.36,624.307 2760.61,627.544Z" style="fill:rgb(254,254,254);fill-rule:nonzero;"/>
    <path d="M951.975,1065.71C956.635,1071.34 960.402,1076.95 965.361,1081.15C971.091,1086 978.055,1086.72 984.825,1082.4C992.891,1077.25 1000.92,1072.04 1009.79,1066.32C1011.51,1068.63 1013.58,1071.41 1016.28,1075.05C1005.59,1085.68 995.052,1096.13 984.548,1106.61C972.78,1118.35 960.673,1129.77 949.368,1141.94C931.056,1161.66 913.204,1181.8 895.319,1201.91C889.812,1208.1 884.827,1214.75 879.02,1221.91C825.418,1180.45 784.431,1131.32 776.745,1058.92C758.506,1076.26 742.503,1094.12 726.358,1111.84C710.02,1129.76 693.526,1147.55 677.512,1165.76C661.539,1183.93 646.077,1202.54 629.969,1221.46C628.518,1220.47 626.726,1219.61 625.374,1218.29C601.316,1194.86 577.315,1171.41 558.735,1143.07C545.047,1122.2 536.518,1099.47 532.256,1074.99C528.442,1053.09 525.777,1031.08 525.654,1008.8C525.222,930.549 524.268,852.292 524.639,774.042C524.75,750.643 527.53,727.168 534.424,704.408C540.163,685.46 551.921,671.249 566.797,658.92C586.639,642.474 609.166,630.409 631.553,618.005C662.624,600.788 694.397,584.568 724.05,565.145C747.815,549.579 768.9,529.915 791.108,511.987C796.493,507.639 801.617,502.967 807.792,497.642C855.372,567.88 918.076,619.1 995.943,651.39L995.943,662.515C985.658,665.639 975.294,668.854 964.89,671.931C951.136,675.998 942.95,685.297 939.901,699.028C938.26,706.415 936.938,713.962 936.472,721.499C935.754,733.11 935.804,744.773 935.685,756.416C934.989,824.657 934.058,892.898 933.804,961.142C933.697,989.656 934.649,1018.24 943.82,1045.72C946.018,1052.3 948.992,1058.62 951.975,1065.71M776.33,711.263L776.33,697.305C758.417,684.431 742.235,670.117 728.513,653.383C714.774,636.627 701.952,619.119 688.728,601.94C688.024,602.055 687.32,602.171 686.616,602.286C686.301,605.991 685.713,609.696 685.71,613.402C685.657,692.376 685.407,771.351 685.762,850.323C686.002,903.888 683.663,957.507 687.82,1011C689.022,1026.47 691.604,1041.88 694.366,1057.17C695.999,1066.21 701.5,1073.56 708.475,1079.54C715.243,1085.33 720.846,1085.63 728.378,1080.78C732,1078.45 735.713,1076.11 738.834,1073.18C749.241,1063.43 759.163,1053.15 769.751,1043.6C774.934,1038.93 776.487,1033.91 776.473,1027.09C776.268,922.453 776.33,817.821 776.33,711.263Z" style="fill:rgb(253,254,254);fill-rule:nonzero;"/>
    <path d="M3083.9,1194.08C3071.48,1179.34 3059.21,1165.36 3047.7,1150.8C3028.02,1125.89 3018.72,1096.75 3014.04,1065.77C3009.21,1033.86 3007.75,1001.75 3007.69,969.546C3007.59,909.564 3007.46,849.58 3007.75,789.599C3007.88,763.73 3009.75,737.992 3015.61,712.607C3020.61,690.927 3031.98,673.797 3049.02,659.781C3071.53,641.263 3097.06,627.796 3122.51,614.034C3148.78,599.824 3175.15,585.696 3200.61,570.104C3229.3,552.531 3254.16,529.78 3279.43,507.715C3282.92,504.672 3286.44,501.674 3291.04,497.72C3339.01,567.504 3401.5,619.395 3479.28,651.448L3479.28,662.558C3469.18,665.554 3459.45,668.621 3449.61,671.324C3432.22,676.103 3424.34,688.622 3421.82,705.344C3420.69,712.85 3419.82,720.472 3419.75,728.05C3418.95,812.62 3418.12,897.192 3417.8,981.765C3417.7,1008.09 3421.12,1034.12 3432.04,1058.45C3435.11,1065.29 3439.51,1071.85 3444.56,1077.39C3453.07,1086.73 3461.22,1087.37 3472.11,1080.64C3477.47,1077.33 3482.39,1073.32 3487.53,1069.65C3489.14,1068.5 3490.8,1067.43 3492.39,1066.36C3500.26,1074.82 3500.34,1074.89 3492.91,1082.23C3477.02,1097.89 3460.51,1112.95 3445.24,1129.18C3420.65,1155.32 3396.81,1182.16 3372.76,1208.81C3369.22,1212.73 3366.25,1217.17 3363.02,1221.36C3317.38,1189.43 3267.75,1134.56 3259.63,1058.94C3208.48,1111.65 3159.86,1165.45 3112.97,1222.21C3103.31,1212.87 3093.86,1203.72 3083.9,1194.08M3260.34,769C3260.34,747.682 3260.19,726.363 3260.45,705.049C3260.51,699.875 3259.01,696.662 3254.72,693.467C3232.45,676.88 3213.57,656.826 3196.78,634.805C3188.57,624.035 3180.88,612.871 3173.09,602.085C3167.17,603.723 3168.34,608.165 3168.35,611.994C3168.77,727.18 3169.13,842.366 3169.74,957.55C3169.85,978.126 3170.58,998.721 3171.83,1019.26C3172.54,1030.79 3174.34,1042.34 3176.7,1053.66C3178.97,1064.58 3184.01,1074.27 3193.71,1080.9C3199.24,1084.69 3204.7,1085.22 3210.44,1081.72C3213,1080.16 3215.77,1078.79 3217.92,1076.78C3230.28,1065.2 3242.37,1053.34 3254.79,1041.84C3259.36,1037.61 3260.47,1032.84 3260.45,1026.81C3260.28,941.542 3260.34,856.271 3260.34,769Z" style="fill:rgb(254,254,254);fill-rule:nonzero;"/>
    <path d="M4821.58,1066.21C4825.28,1070.96 4828.38,1075.32 4832.06,1079.12C4837.95,1085.21 4845.35,1086.99 4852.88,1083.07C4859.91,1079.41 4866.3,1074.55 4872.94,1070.16C4874.84,1068.91 4876.61,1067.47 4878.41,1066.14C4886.18,1074.89 4886.26,1074.97 4878.82,1082.3C4865.8,1095.12 4852.47,1107.62 4839.64,1120.61C4807.89,1152.76 4776.85,1185.58 4748.93,1221.16C4706.74,1192.24 4653.43,1136.12 4645.63,1058.74C4594.46,1111.61 4545.85,1165.4 4499.22,1221.8C4482.62,1207.83 4467.54,1192.56 4453.65,1176.17C4445.28,1166.31 4437.54,1155.89 4429.86,1145.47C4412.47,1121.88 4404.44,1094.67 4400.03,1066.17C4395.14,1034.6 4393.67,1002.79 4393.66,970.889C4393.66,909.238 4393.48,847.585 4393.76,785.935C4393.86,764.728 4396.07,743.685 4399.33,722.635C4404.13,691.519 4420.71,669.002 4445.69,651.278C4464.72,637.768 4485.03,626.55 4505.57,615.6C4528.43,603.415 4551.21,591.073 4573.71,578.246C4601.56,562.365 4625.89,541.65 4650.18,520.942C4659,513.424 4667.69,505.765 4677.14,497.572C4724.79,568.041 4787.6,619.165 4865.33,651.52L4865.33,662.715C4857.33,664.955 4849.38,666.965 4841.56,669.411C4817.04,677.084 4808.46,687.572 4806.42,712.885C4805.38,725.783 4804.49,738.732 4804.42,751.662C4804.03,830.293 4803.49,908.927 4803.89,987.556C4804.03,1014.54 4808.57,1041.09 4821.58,1066.21M4646.34,895C4646.34,832.038 4646.27,769.075 4646.45,706.113C4646.47,700.264 4644.99,696.385 4640.01,692.852C4632.73,687.692 4626.04,681.646 4619.48,675.561C4597.66,655.315 4579.5,632.013 4562.99,607.35C4561.63,605.318 4559.77,603.617 4558.26,601.892C4552.34,605.103 4554.41,609.976 4554.42,613.922C4554.76,737.119 4555.02,860.317 4555.86,983.511C4556,1003.33 4558.37,1023.17 4560.49,1042.92C4561.62,1053.46 4564.31,1063.87 4571.13,1072.55C4581.61,1085.91 4590.79,1088.15 4602.87,1077.21C4615.89,1065.42 4628.29,1052.94 4641.27,1041.1C4645.41,1037.32 4646.44,1033.21 4646.42,1027.92C4646.27,984.282 4646.34,940.641 4646.34,895Z" style="fill:rgb(254,254,254);fill-rule:nonzero;"/>
    <path d="M1043.19,653.306C1089.27,636.043 1126.53,608.019 1156.78,570.405C1158.66,568.072 1161.03,566.043 1162.49,563.485C1165.09,558.924 1168.07,559.093 1172.45,560.986C1188.61,567.965 1204.82,574.846 1221.22,581.235C1249.38,592.203 1277.61,603.131 1307.38,609.011C1326.96,612.879 1346.78,615.183 1366.76,612.008C1383.67,609.32 1398.62,602.709 1409.39,588.747C1422.05,572.348 1418.7,562.52 1408.36,550.555C1402.28,543.524 1395.98,536.674 1390.12,529.463C1380.34,517.412 1381.84,489.666 1391.63,477.715C1402.55,464.383 1419.89,460.838 1434.36,470.443C1449.9,480.762 1457.12,495.726 1458.38,514.07C1460.68,547.494 1449.88,577.025 1430.94,603.729C1412.91,629.166 1394.07,654.046 1375.22,678.897C1349.55,712.756 1323.52,746.355 1296.86,781.099C1341.58,805.215 1385.81,829.063 1430,852.896L1430,1106.87C1395.47,1110.38 1362.69,1119.36 1332.51,1136.31C1302.81,1153 1277.03,1175 1252.35,1198.17C1238.61,1190.73 1225.62,1183.49 1212.44,1176.61C1181.93,1160.68 1149.34,1152.33 1115.01,1151.38C1078.97,1150.39 1046.16,1160.39 1017.07,1182.02C1010.94,1186.58 1004.84,1191.27 998.294,1195.17C989.45,1200.45 983.151,1198.94 975.297,1190.72C968.611,1183.71 967.625,1175.99 972.581,1168.06C973.98,1165.82 975.719,1163.77 977.421,1161.74C994.881,1140.87 1013.15,1120.63 1029.68,1099.06C1063.6,1054.77 1096.58,1009.78 1129.93,965.054C1130.7,964.01 1131.16,962.726 1132.14,960.834C1090.25,937.671 1048.51,914.59 1006.6,891.413L1006.6,666.647C1018.38,662.392 1030.45,658.036 1043.19,653.306M1215.17,892.179C1194.09,921.201 1173,950.212 1151.94,979.249C1131.12,1007.95 1109.8,1036.3 1090.12,1065.97C1097.79,1064.69 1104.77,1062.69 1111.78,1060.79C1145.58,1051.66 1179.69,1048.96 1214.24,1056.11C1245.78,1062.63 1274.89,1075.24 1302.53,1091.51C1305.24,1093.1 1308.06,1094.49 1311.28,1096.22L1311.28,926.151C1282.7,910.373 1254.26,894.681 1225.36,878.728C1222.01,883.182 1219.05,887.119 1215.17,892.179M1143.39,831.689C1163.57,842.327 1183.76,852.965 1204.34,863.808C1245.64,807.467 1286.74,751.41 1329.17,693.535C1254.04,716.739 1187.84,700.2 1126.11,657.005L1126.11,822.223C1131.64,825.231 1136.88,828.075 1143.39,831.689Z" style="fill:rgb(253,253,253);fill-rule:nonzero;"/>
    <path d="M2385.06,1051.21C2418.06,1062.63 2448.2,1055.79 2476.46,1039.23C2490.41,1031.05 2502.96,1020.46 2516.15,1010.96C2517.7,1009.84 2519.26,1008.72 2521.34,1007.22C2523.21,1011.32 2524.83,1014.89 2526.89,1019.42C2521.23,1024.37 2515.53,1029.31 2509.88,1034.31C2471.83,1068.01 2433.66,1101.57 2395.81,1135.47C2366.85,1161.41 2338.33,1187.85 2313.86,1218.26C2313.03,1219.28 2311.96,1220.1 2310.04,1221.94C2298.35,1214.99 2286.32,1208.15 2274.61,1200.81C2244.08,1181.67 2215.8,1159.78 2190.51,1133.9C2162.75,1105.5 2145.26,1071.97 2136.02,1033.65C2128.55,1002.65 2123.65,971.294 2121.68,939.487C2120.21,915.648 2118.68,891.804 2117.74,867.941C2116.71,841.712 2115.77,815.457 2115.81,789.214C2115.85,760.033 2117.38,730.917 2121.6,701.932C2129.23,649.552 2156.37,610.56 2201.89,584.6C2233.61,566.51 2266.3,550.128 2298.34,532.596C2327.47,516.658 2356.32,500.194 2385.29,483.975C2387.25,482.878 2389.28,481.901 2392.2,480.389C2432.59,560.232 2472.75,639.603 2513.31,719.785C2431.87,783.23 2351.01,846.23 2269.86,909.45C2275.17,928.924 2282.26,947.413 2292.25,964.715C2310.66,996.608 2334.09,1023.82 2366.3,1042.55C2372,1045.86 2378.31,1048.12 2385.06,1051.21M2264.33,793C2264.91,823.073 2265.5,853.146 2266.14,885.561C2302.73,857.124 2337.47,830.13 2372.39,802.988C2338.29,728.815 2304.78,655.028 2269.87,581.78C2268.07,595.151 2266.81,608.205 2266.41,621.286C2265.49,651.192 2264.76,681.108 2264.39,711.026C2264.07,737.68 2264.33,764.341 2264.33,793Z" style="fill:rgb(254,254,254);fill-rule:nonzero;"/>
    <path d="M2001.67,938C2001.89,963.971 2001.7,988.956 2002.5,1013.91C2002.96,1028.5 2005.68,1042.95 2012.12,1056.26C2021.51,1075.65 2037.61,1081.86 2057.57,1074.01C2062.79,1071.95 2067.92,1069.44 2072.7,1066.5C2080.88,1061.48 2088.75,1055.96 2096.96,1050.51C2099.09,1055.13 2101.13,1059.58 2103.53,1064.82C2041.52,1112.74 1980.96,1162.26 1928.41,1222C1889.68,1163.05 1846.34,1109.82 1781.38,1077.84C1782.88,1072.96 1784.29,1068.39 1785.68,1063.87C1793.34,1066.21 1800.11,1068.79 1807.12,1070.31C1819.12,1072.91 1828.01,1067.88 1832.23,1056.45C1833.82,1052.14 1835.1,1047.57 1835.53,1043.02C1836.55,1032.14 1837.56,1021.21 1837.57,1010.3C1837.7,859.687 1838.37,709.072 1837.33,558.47C1836.87,492.668 1824.82,428.541 1797.8,367.924C1792.82,356.749 1786.9,345.992 1780.89,333.979C1784.34,331.827 1787.55,329.823 1791.57,327.314C1813.19,365.513 1829.39,405.123 1838.24,450.004C1842.32,442.081 1845.33,436.07 1848.48,430.133C1875.53,379.178 1916.63,344.268 1970.28,323.788C2001.84,311.737 2034.64,305.414 2068.3,303.296C2077.81,302.697 2087.34,302.241 2097.29,301.696L2097.29,314.038C2088.12,315.988 2079.06,317.746 2070.09,319.88C2064.28,321.262 2058.57,323.089 2052.87,324.898C2035.74,330.343 2023.85,341.722 2015.78,357.57C2009.68,369.551 2005.83,382.226 2004.45,395.49C2003.03,409.006 2001.8,422.619 2001.79,436.191C2001.61,603.127 2001.67,770.064 2001.67,938Z" style="fill:rgb(254,254,254);fill-rule:nonzero;"/>
    <path d="M1712,715.287L1660.34,715.287L1660.34,726.017C1660.34,821.004 1660.34,915.991 1660.34,1010.98C1660.34,1022.37 1662.34,1033.43 1666.41,1044.06C1676.92,1071.49 1703.16,1081.6 1729.94,1068.99C1745.43,1061.69 1758.72,1051.35 1772.25,1039.46C1774.66,1043.82 1776.8,1047.68 1779.42,1052.41C1713.82,1104.66 1652.14,1160.45 1594.26,1222.18C1577.46,1190.62 1555.09,1165.36 1529.57,1142.88C1504.3,1120.61 1476.89,1101.35 1445.66,1088.04L1445.66,1075.19C1451.04,1075.7 1455.85,1075.96 1460.61,1076.64C1481.2,1079.6 1496.65,1069.79 1501.59,1049.36C1503.91,1039.78 1505.46,1029.76 1505.49,1019.93C1505.77,920.607 1505.66,821.287 1505.64,721.968C1505.64,720.038 1505.35,718.109 1505.12,715.26L1434.75,715.26L1434.75,703.542C1447.63,693.87 1460.95,684.562 1473.49,674.305C1508.31,645.833 1536.74,611.704 1560.62,573.73C1590.84,525.692 1613.19,473.887 1633.05,420.939C1640.03,402.348 1646.41,383.536 1653.2,364.454L1665.67,364.454C1665.67,368.722 1665.77,373.217 1665.66,377.707C1665.02,402.952 1664.32,428.196 1663.67,453.441C1662.99,480.359 1662.2,507.276 1661.7,534.199C1661.12,565.803 1660.79,597.412 1660.38,629.02C1660.37,629.985 1660.66,630.954 1660.96,632.9L1775.05,632.9L1775.05,715.287C1754.15,715.287 1733.58,715.287 1712,715.287Z" style="fill:rgb(254,254,254);fill-rule:nonzero;"/>
    <path d="M4286.85,1038.82C4289.43,1047.68 4292.74,1055.23 4298.75,1061.35C4307.74,1070.5 4321.31,1072.91 4330.58,1066.53C4340.13,1059.97 4349.63,1053.35 4360.12,1046.08C4362.14,1048.96 4364.7,1052.62 4367.7,1056.91C4363.36,1061.78 4359.25,1066.86 4354.64,1071.44C4342.6,1083.41 4330.12,1094.94 4318.21,1107.03C4290.38,1135.25 4262.69,1163.61 4235.14,1192.1C4225.96,1201.59 4217.38,1211.66 4208.07,1221.97C4180.93,1197.5 4155.11,1172.63 4138.17,1140.26C4129.64,1123.98 4125.14,1106.23 4122.15,1088.13C4118.57,1066.44 4117.56,1044.6 4117.59,1022.62C4117.75,916.288 4117.8,809.955 4117.52,703.623C4117.48,687.427 4116.61,671.081 4110.45,655.652C4107.22,647.542 4102.23,641.298 4093.34,638.95C4086.39,637.117 4080.2,638.083 4074.93,643.25C4069.03,649.037 4063.1,654.798 4056.93,660.806C4055.33,658.545 4053.91,656.339 4052.29,654.306C4048.66,649.778 4049.63,646.401 4053.67,642.312C4068.41,627.413 4082.57,611.955 4097.24,596.998C4126.88,566.794 4156.72,536.795 4186.44,506.668C4190.59,502.46 4194.49,498.004 4199.15,492.963C4208.57,504.385 4217.32,515.157 4226.24,525.781C4251.32,555.638 4277.8,584.101 4309.79,606.785C4319.24,613.488 4329.43,619.159 4339.93,625.71L4339.93,638.216C4332.33,640.397 4324.61,642.273 4317.14,644.861C4310.58,647.134 4303.78,649.4 4298.01,653.097C4287.36,659.91 4281.57,670.321 4280.4,682.929C4279.24,695.48 4278,708.066 4277.77,720.654C4276.86,770.579 4276.22,820.509 4275.73,870.44C4275.56,888.421 4275.57,906.435 4276.46,924.387C4277.93,954.179 4279.96,983.95 4282.22,1013.7C4282.83,1021.88 4285.07,1029.95 4286.85,1038.82Z" style="fill:rgb(254,254,254);fill-rule:nonzero;"/>
    <path d="M4277.89,316.475C4280.66,331.871 4280.31,346.393 4277.09,360.754C4271.77,384.488 4258.58,403.009 4238.95,417.183C4213.85,435.31 4185.37,444.283 4154,449.096C4149.69,439.11 4145.09,429.305 4141.18,419.235C4133.12,398.522 4125.47,377.59 4123.15,355.32C4120.25,327.342 4123.25,300.54 4139.44,276.21C4163.68,239.782 4223.48,234.718 4252.19,266.033C4265.44,280.481 4274.17,296.546 4277.89,316.475Z" style="fill:rgb(253,253,253);fill-rule:nonzero;"/>
</svg>
