<?xml version="1.0" encoding="UTF-8" standalone="no"?>
<!DOCTYPE svg PUBLIC "-//W3C//DTD SVG 1.1//EN" "http://www.w3.org/Graphics/SVG/1.1/DTD/svg11.dtd">
<svg width="100%" height="100%" viewBox="0 0 600 153" version="1.1" xmlns="http://www.w3.org/2000/svg" xmlns:xlink="http://www.w3.org/1999/xlink" xml:space="preserve" xmlns:serif="http://www.serif.com/" style="fill-rule:evenodd;clip-rule:evenodd;stroke-linejoin:round;stroke-miterlimit:2;">
    <path d="M215.365,121.855C211.115,121.982 207.296,121.982 203.294,121.982C203.105,120.729 202.942,119.652 202.78,118.576C202.614,118.569 202.448,118.562 202.282,118.555C202.133,119.88 201.984,121.206 201.782,123C198.933,123 195.925,122.667 193.023,123.079C188.809,123.677 188.503,120.803 187.47,118.025C185.52,112.784 183.267,107.652 181.045,102.516C180.326,100.854 179.312,99.32 178.433,97.728C177.854,97.944 177.275,98.16 176.696,98.376C179.172,106.595 181.648,114.814 184.319,123.681C179.057,124.456 174.071,125.296 169.05,125.789C168.456,125.847 167.426,124.097 167.021,123.025C163.573,113.888 160.231,104.711 156.826,95.558C156.604,94.96 156.127,94.457 155.201,93.042C155.539,97.471 155.375,100.73 156.092,103.783C159.278,117.339 153.591,122.95 143.821,128.337C138.222,131.424 131.36,132.278 125.015,133.94C119.573,135.365 114.074,136.591 108.565,137.739C105.96,138.282 103.981,138.544 102.686,134.72C100.441,128.091 97.086,121.806 93.852,115.554C90.971,109.984 91.064,109.277 97.224,107.508C92.177,98.508 87.241,89.555 82.16,80.686C76.578,70.942 70.637,61.395 65.349,51.497C63.846,48.683 61.998,47.24 59.325,47.091C54.623,46.829 52.009,44.809 49.644,40.532C44.048,30.409 37.546,20.787 31.461,10.932C31.063,10.286 31.092,9.376 30.741,7.748C32.525,8.255 33.819,8.56 35.07,8.989C55.479,15.981 75.958,22.779 96.251,30.093C104.48,33.059 112.623,36.587 120.221,40.89C128.598,45.634 135.323,52.562 139.969,61.145C143.132,66.988 145.897,73.047 148.84,79.009C149.288,78.861 149.737,78.713 150.186,78.566C145.925,67.216 141.664,55.867 137.169,43.894C148.966,46.099 159.366,48.279 169.849,49.935C180.843,51.673 186.256,62.756 187.958,70.611C188.909,74.999 189.618,79.424 186.341,83.476C185.919,83.998 187.129,86.782 188.227,87.435C194.581,91.212 194.733,98.132 196.95,103.96C198.561,108.196 199.708,112.609 201.063,116.943C201.5,116.824 201.938,116.706 202.376,116.587C198.854,96.248 195.333,75.909 191.615,54.436C198.361,55.356 204.438,56.061 210.451,57.128C211.447,57.305 212.462,58.935 212.96,60.108C218.026,72.031 222.978,84.002 227.981,95.951C229.627,99.883 231.326,103.792 234.167,107.413C233.168,102.783 232.105,98.166 231.182,93.522C229.739,86.26 227.846,79.031 227.153,71.693C226.458,64.339 229.993,61.065 237.41,61.074C241.308,61.078 245.255,61.433 249.09,62.124C255.548,63.288 259.533,69.184 259.987,77.674C260.074,79.303 260,80.94 260,83C257.577,83 255.448,82.886 253.336,83.025C249.526,83.277 246.414,83.193 246.717,77.81C246.783,76.635 244.054,75.303 242.613,74.044C242.11,75.82 240.943,77.711 241.226,79.351C242.127,84.567 243.567,89.689 245.797,94.898C245.532,91.743 245.267,88.589 244.982,85.198L260.589,85.198C261.195,87.85 261.854,90.736 262.513,93.623C262.759,93.589 263.006,93.555 263.253,93.521C262.826,87.99 262.771,82.398 261.885,76.941C260.576,68.87 264.437,63.829 272.603,64.047C276.175,64.143 279.746,64.582 283.297,65.03C287.093,65.51 290.021,67.177 291.012,71.26C291.408,72.892 292.044,74.466 293.512,75.982L293.512,66.327L304.799,66.327C307.212,72.838 309.741,79.661 312.27,86.485C312.513,86.474 312.757,86.463 313,86.453C313,81.308 313.237,76.149 312.924,71.023C312.679,67.02 314.058,65.493 318.035,65.956C320.149,66.203 322.315,66 323.977,66C323.977,74.423 324.233,82.612 323.901,90.777C323.603,98.126 322.835,105.473 321.892,112.771C321.613,114.933 320.431,118.311 318.981,118.722C315.51,119.705 311.537,119.737 309.958,114.853C309.065,112.092 307.593,109.518 305.312,107.06L305.312,118.178C304.468,118.653 304.198,118.937 303.926,118.939C292.007,119.005 294.177,120.108 294.015,109.38C293.917,102.884 293.977,96.384 293.933,89.887C293.931,89.619 293.597,89.354 292.922,88.352C292.511,89.783 292.046,90.669 292.035,91.559C291.967,97.224 292.049,102.89 291.986,108.555C291.924,114.207 290.249,116.099 284.519,116.984C281.632,117.43 278.711,117.965 275.81,117.937C270.091,117.882 265.198,112.765 265.01,106.988C264.946,104.993 265,102.994 264.291,100.966C263.449,107.525 265.932,115.847 257.654,118.478C251.294,120.498 243.847,121.67 237.177,114.853C238.134,119.606 236.302,120.505 233.101,120.057C232.041,119.909 230.853,120.314 229.786,120.659C226.866,121.604 224.97,121.116 223.903,117.802C222.826,114.459 220.711,111.975 216.491,113.209C216.264,115.988 216.03,118.858 215.365,121.855M114.037,93.421C115.898,96.99 117.706,100.589 119.653,104.111C120.24,105.174 121.353,106.924 121.984,106.826C125.742,106.237 129.84,105.877 132.946,103.993C134.276,103.186 134.516,98.401 133.493,96.266C128.673,86.204 123.903,76.004 117.828,66.694C112.812,59.007 103.988,57.093 94.436,55.73C98.966,64.632 102.953,72.624 107.093,80.537C109.245,84.65 111.667,88.622 114.037,93.421M280,94.456C280,89.807 280.243,85.136 279.84,80.521C279.73,79.263 277.675,78.175 276.513,77.01C275.687,78.377 274.09,79.79 274.168,81.104C274.521,87.079 275.212,93.046 276.08,98.973C276.355,100.856 277.553,102.604 278.328,104.414C278.885,104.219 279.443,104.023 280,103.827L280,94.456M172.998,75.374C173.003,70.14 169.972,67.54 164.521,65.64C166.216,69.53 167.922,72.413 168.72,75.527C169.81,79.783 171.158,78.525 172.998,75.374M249.474,97.003C248.023,96.747 246.573,96.491 245.255,96.259C245.542,98.339 245.491,100.175 246.108,101.75C246.596,102.994 247.905,103.917 248.849,104.982C249.735,103.664 251.057,102.442 251.372,101C251.632,99.816 250.697,98.37 249.474,97.003M214.887,97.642C215.331,96.967 216.305,96.08 216.134,95.651C214.951,92.686 213.53,89.817 212.185,86.917C211.617,87.136 211.049,87.355 210.481,87.575C211.711,91.039 212.941,94.503 214.887,97.642Z" style="fill:white;fill-rule:nonzero;"/>
    <path d="M421.979,116.974C424.607,110.558 427.252,104.567 429.802,98.536C430.699,96.414 431.56,95.612 434.2,96.52C436.759,97.4 439.752,97.017 443.086,97.222C441.472,101.637 439.838,105.867 438.415,110.168C438.056,111.255 438.372,112.566 438.378,113.774C439.521,113.036 441.177,112.563 441.718,111.515C444.265,106.578 446.506,101.483 449.043,96.045C446.366,95.035 443.757,93.828 441.023,93.065C435.063,91.402 433.306,87.855 435.576,81.875C437.789,76.043 440.133,70.24 441.947,64.28C444.745,55.087 450.03,49.208 460.067,47.926C466.435,47.113 472.671,45.297 478.989,44.051C482.763,43.307 486.962,46.962 486.997,50.851C487.015,52.819 487,54.788 488.033,57.214C488.81,55.868 489.638,54.548 490.352,53.17C491.313,51.315 492.515,49.503 493.042,47.521C495.807,37.117 504.06,34.131 513.201,31.929C518.63,30.621 523.941,28.755 529.192,26.831C530.336,26.412 531.088,24.733 531.866,23.534C534.75,19.089 537.541,14.583 540.448,10.153C540.836,9.561 541.685,9.272 543.248,9.332C541.761,13.715 540.273,18.099 538.429,23.533C549.78,19.913 560.069,16.632 570.354,13.351C571.067,16.999 544.929,58.261 539.879,61.677C540.237,58.111 541.268,54.221 540.744,50.554C540.452,48.512 537.875,45.934 535.779,45.23C533.154,44.349 530.25,44.211 528.802,48.723C524.698,61.512 519.664,74 515.115,86.648C511.002,98.083 507.054,109.578 503,121.034C502.635,122.066 502.285,123.399 501.486,123.937C490.005,131.685 478.453,139.327 466.89,146.952C466.556,147.172 465.915,146.928 465.326,146.896C466.017,138.949 466.6,131.017 467.42,123.108C468.7,110.766 478.478,103.137 484.312,93.333C489.163,85.181 494.745,77.461 500.052,69.582C504.603,62.825 509.222,56.114 514.399,48.52C502.063,52.101 494.156,60.822 483.841,67.755C484.719,64.942 485.302,63.071 485.886,61.2C485.45,61.013 485.015,60.826 484.579,60.639C482.708,64.511 480.805,68.368 478.977,72.261C477.884,74.589 476.781,76.212 473.566,76.136C469.203,76.032 464.818,76.883 459.307,77.44C461.172,72.549 462.671,68.618 464.256,64.463C459.696,63.164 457.21,64.848 455.948,68.971C455.577,70.182 454.717,71.233 454.245,72.422C451.556,79.195 452.375,79.993 459.696,81.107C466.822,82.192 470.066,85.786 467.254,93.052C463.352,103.134 458.564,112.901 453.679,122.561C451.163,127.537 440.23,131.331 434.551,129.769C431.2,128.847 427.846,127.732 424.731,126.215C420.956,124.377 420.069,121.212 421.979,116.974Z" style="fill:white;fill-rule:nonzero;"/>
    <path d="M358,109.022C357.394,114.923 354.841,118.917 349.495,121.165C351.193,120.814 352.891,120.464 355.512,119.923C354.22,124.863 353.033,129.404 351.87,133.853C337.025,133.256 333.443,129.774 336.933,119.762C331.128,116.359 329.912,112.904 330.962,105.943C332.249,97.405 332.846,88.765 334.076,80.218C334.616,76.465 335.63,72.685 337.077,69.185C338.553,65.611 341.606,63.717 345.707,63.987C346.868,64.063 348.08,64.171 349.199,63.934C359.66,61.727 365.133,67.516 362.646,77.894C361.717,81.77 361.593,85.838 361.102,89.819C361.55,89.89 361.998,89.962 362.446,90.034C363.63,83.83 364.839,77.63 365.987,71.419C366.399,69.192 366.356,66.823 367.125,64.742C367.551,63.59 369.13,62.311 370.354,62.114C373.696,61.575 377.126,61.58 381.538,61.306C378.498,76.427 375.464,91.519 372.43,106.61C373.105,106.794 373.78,106.978 374.454,107.162C375.297,104.38 376.3,101.634 376.953,98.808C379.45,88.012 381.763,77.172 384.288,66.383C385.892,59.529 386.006,59.555 398.296,60.253C397.511,64.525 396.974,68.757 395.937,72.862C392.363,87.016 388.649,101.134 384.909,115.245C383.927,118.951 376.602,122.047 371.75,120.94C370.972,120.763 370.241,120.027 369.507,120.054C357.11,120.511 358.717,115.727 358.635,105.983C358.424,106.856 358.212,107.729 358,109.022M348.997,83.314L348.997,77.035C345.191,77.013 343.918,78.331 343.906,81.755C343.882,88.485 343.266,95.211 343.01,101.943C342.959,103.268 343.425,104.613 343.653,105.949C344.435,104.758 345.672,103.656 345.922,102.362C347.084,96.349 347.973,90.282 348.997,83.314Z" style="fill:white;fill-rule:nonzero;"/>
    <path d="M431.529,82.242C430.251,87.789 428.707,93.165 426.823,98.419C426.532,99.232 424.714,99.823 423.548,99.93C421.071,100.158 418.558,100 416.059,100C407.168,100 407.168,100 405.524,109.192L422.41,109.192C420.645,114.63 419.027,119.61 417.498,124.32C407.143,123.474 397.28,122.668 386.278,121.769C387.771,115.908 389.109,110.366 390.598,104.865C394.027,92.198 397.523,79.548 401.006,66.895C401.686,64.428 402.297,61.927 403.222,59.552C403.496,58.845 404.691,58.165 405.536,58.064C414.597,56.974 423.671,55.994 432.745,55.005C435.976,54.652 439.214,54.354 443.159,53.961C440.798,60.688 438.858,66.213 436.947,71.657C429.819,72.593 422.868,73.506 415.328,74.497C414.532,76.728 413.541,79.505 412.159,83.378C419.157,82.882 425.155,82.456 431.529,82.242Z" style="fill:white;fill-rule:nonzero;"/>
</svg>
