<svg version="1.1" id="Layer_1" xmlns="http://www.w3.org/2000/svg" xmlns:xlink="http://www.w3.org/1999/xlink" x="0px" y="0px"
	 width="100%" viewBox="0 0 432 112" enable-background="new 0 0 432 112" xml:space="preserve">
<path fill="#000000" opacity="1.000000" stroke="none" 
	d="
M10.000000,113.000000 
	C7.005455,113.000000 4.010910,113.000000 1.012273,113.000000 
	C1.008182,75.740005 1.008182,38.480007 1.008182,1.000000 
	C40.687290,1.000000 80.374985,1.000000 120.622986,1.362144 
	C121.257538,2.840851 120.591003,3.617086 119.887161,4.317817 
	C111.201859,12.964737 102.492798,21.587784 93.805511,30.232710 
	C88.403305,35.608570 82.920151,40.910465 77.714050,46.470943 
	C76.375114,47.901020 73.830963,50.115784 77.152626,52.215305 
	C79.719543,53.837780 91.386978,52.460239 93.359314,50.302505 
	C97.604721,45.658047 101.555840,40.738319 105.904129,36.196167 
	C109.304794,32.643898 111.808868,28.015341 116.913452,25.639473 
	C118.235092,31.635849 115.564842,36.813019 116.366493,42.114307 
	C116.695648,44.290966 115.449776,47.128349 118.354065,48.246540 
	C120.856361,49.209957 122.785202,47.413387 124.620850,46.003891 
	C130.935944,41.154850 137.164368,36.190964 143.546341,31.432482 
	C144.983856,30.360662 146.439789,28.656536 148.708466,29.240480 
	C149.412888,31.611460 147.751953,32.876949 146.778961,34.264347 
	C143.990311,38.240665 141.747269,42.507103 139.756607,46.903465 
	C137.907425,50.987320 138.808533,52.476078 143.279510,52.576397 
	C149.438263,52.714588 155.602570,52.587711 161.764282,52.619148 
	C164.804337,52.634655 166.545700,51.211021 167.803741,48.407055 
	C173.774475,35.099220 179.867615,21.845030 186.069504,8.643297 
	C187.268341,6.091362 187.768600,3.680997 187.000000,1.000000 
	C189.041672,1.000000 191.083328,1.000000 193.669098,1.390648 
	C194.325882,4.193885 193.297150,6.297291 192.420609,8.445490 
	C187.230469,21.165373 182.023407,33.878448 176.876297,46.615734 
	C175.498627,50.024986 175.837387,52.601425 180.405594,52.601814 
	C193.886581,52.602959 207.367584,52.606010 220.848572,52.617493 
	C222.584778,52.618973 224.197159,52.321732 225.238388,50.765541 
	C226.288620,49.195908 226.915680,47.575645 226.092529,45.616322 
	C225.118378,43.297523 223.437225,42.408665 221.004898,42.425365 
	C214.079788,42.472904 207.154114,42.442055 199.940674,42.442055 
	C200.248032,39.697838 200.412979,37.905251 200.654861,36.123100 
	C201.516129,29.776796 202.822647,28.645205 209.226257,28.627649 
	C212.887726,28.617611 216.549225,28.593414 220.210648,28.601915 
	C223.802582,28.610254 226.464020,27.523222 226.588776,23.342184 
	C226.723755,18.818119 223.766434,18.338369 220.259888,18.389923 
	C215.347412,18.462147 210.433075,18.408154 205.391693,18.408154 
	C206.809235,10.662471 206.809235,10.661770 213.558807,10.626077 
	C215.056671,10.618156 216.554581,10.615051 218.052460,10.613226 
	C226.669769,10.602723 227.603943,9.473170 226.000000,1.000000 
	C229.692902,1.000000 233.385818,1.000000 237.476593,1.340422 
	C232.545578,5.204780 230.331024,10.286901 230.367310,16.537050 
	C230.402115,22.530756 230.363495,28.524847 230.372772,34.518745 
	C230.390717,46.109768 236.903000,52.577698 248.686768,52.617172 
	C261.173950,52.659008 273.661407,52.643429 286.148712,52.621212 
	C292.834320,52.609318 294.066467,50.624596 290.560974,44.991325 
	C287.046204,39.343063 283.551636,33.688179 280.719452,27.672298 
	C277.523621,20.883966 273.026001,16.688210 264.867889,18.359453 
	C263.110260,18.719507 261.215057,18.379431 259.384430,18.418612 
	C257.067169,18.468206 254.230087,18.140106 253.751999,21.195501 
	C253.313950,23.994993 254.708954,26.269466 257.482849,27.543077 
	C262.630188,29.906427 265.583954,34.976048 264.790375,40.181770 
	C264.545105,41.790573 264.178528,43.584393 262.228790,44.126156 
	C260.477814,44.612694 258.871246,44.159885 257.741730,42.719261 
	C256.722473,41.419285 255.409424,40.087585 255.050964,38.574429 
	C252.846466,29.268589 250.876038,19.907299 248.816910,10.515065 
	C252.419220,8.999915 255.777054,9.685731 259.041931,9.644215 
	C267.556946,9.535943 268.399475,8.386179 265.000000,1.000000 
	C269.024536,1.000000 273.049103,1.000000 277.545776,1.363144 
	C276.900574,4.103593 277.804382,6.182819 278.782684,8.375338 
	C284.181702,20.475266 289.540009,32.594009 294.810333,44.750496 
	C298.194611,52.556667 298.182556,52.634106 307.010529,52.625771 
	C308.008270,52.624828 309.006958,52.648506 310.003571,52.613464 
	C315.328430,52.426212 316.159180,50.877655 313.423553,46.134022 
	C312.203583,44.018620 310.410065,42.169003 310.436310,38.787128 
	C316.162109,39.426281 323.008331,35.703060 326.871521,42.035080 
	C332.599121,51.422970 340.458466,54.214878 350.687317,52.656269 
	C351.987549,52.458149 353.351593,52.718616 354.672363,52.606056 
	C356.728241,52.430862 359.462952,53.531075 360.532013,51.084038 
	C361.615265,48.604595 359.037781,47.301231 357.591797,45.848621 
	C344.123962,32.318962 330.595459,18.849758 317.123932,5.323765 
	C315.875153,4.069957 314.178833,3.059583 314.000000,1.000000 
	C353.586823,1.000000 393.173615,1.000000 432.880219,1.000000 
	C432.880219,38.333019 432.880219,75.666481 432.880219,113.000000 
	C430.304718,113.000000 427.643402,113.000000 424.372894,112.675194 
	C418.519257,105.727264 412.405823,99.928223 406.497650,93.921082 
	C395.662170,82.904152 385.036285,71.681175 374.312744,60.554008 
	C373.047424,59.241039 371.840240,57.567612 369.873016,57.548561 
	C361.883179,57.471203 353.883057,57.352524 345.905334,57.689667 
	C342.818604,57.820114 341.944977,59.940525 344.104858,62.555752 
	C346.218231,65.114632 348.421173,67.599380 350.547821,70.147537 
	C356.023743,76.708870 361.479126,83.287300 367.176819,90.140450 
	C364.692932,90.852905 363.338654,89.975494 361.850494,89.222473 
	C343.955902,80.167427 325.987152,71.257812 308.140564,62.109684 
	C301.638947,58.776981 295.051483,56.764477 287.632263,57.325672 
	C282.332092,57.726582 276.976868,57.371723 271.646606,57.409142 
	C265.798553,57.450199 264.553589,58.770519 266.252258,64.234093 
	C270.137817,76.731537 274.432220,89.101654 278.341003,101.592209 
	C279.501404,105.300331 281.779053,108.817039 281.000000,113.000000 
	C278.629425,113.000000 276.258881,113.000000 273.439148,112.723564 
	C269.718384,104.422073 264.522034,97.494560 260.179810,90.083054 
	C254.577362,80.520508 248.744843,71.093025 243.065414,61.575146 
	C241.280807,58.584373 238.924805,57.275436 235.302704,57.341488 
	C224.329514,57.541603 213.349396,57.492062 202.374054,57.363346 
	C199.210846,57.326252 196.961655,58.310253 195.364319,61.067081 
	C192.041351,66.802269 188.490952,72.408463 185.264252,78.196037 
	C178.807419,89.777382 171.151215,100.696854 166.000000,113.000000 
	C162.969406,113.000000 159.938812,113.000000 156.587067,112.668640 
	C157.738922,109.697021 158.159470,106.692696 159.164200,103.911980 
	C163.946762,90.675789 167.744370,77.133896 171.922562,63.712349 
	C173.358536,59.099594 172.103470,57.547958 167.257568,57.473042 
	C159.259750,57.349384 151.258484,57.466576 143.259338,57.400818 
	C140.789795,57.380512 138.749161,58.314423 136.759064,59.613167 
	C126.057114,66.597282 115.348106,73.570702 104.617195,80.510178 
	C103.023430,81.540833 101.682396,83.327240 98.924408,82.579460 
	C98.577637,76.076523 97.450554,69.558456 96.798180,63.008991 
	C96.351097,58.520390 94.152557,57.376015 90.289978,57.401489 
	C82.957283,57.449852 75.623444,57.466911 68.291359,57.383709 
	C65.759781,57.354984 63.873466,58.316101 62.105190,60.053875 
	C45.656105,76.219215 29.155802,92.332428 12.690703,108.481514 
	C11.416883,109.730888 9.744981,110.810768 10.000000,113.000000 
z"/>
<path fill="#000000" opacity="1.000000" stroke="none" 
	d="
M324.468658,113.000000 
	C321.473297,104.251717 316.676910,96.379700 313.854187,87.915710 
	C315.787170,86.071053 317.329865,87.104958 318.759521,87.817482 
	C335.104340,95.963486 351.428192,104.151413 367.878845,112.664078 
	C353.645782,113.000000 339.291534,113.000000 324.468658,113.000000 
z"/>
<path fill="#000000" opacity="1.000000" stroke="none" 
	d="
M34.468658,113.000000 
	C42.148720,102.826591 51.910076,94.235123 61.367023,83.890961 
	C63.658859,94.068642 65.418388,103.033348 66.132286,112.584106 
	C55.645771,113.000000 45.291546,113.000000 34.468658,113.000000 
z"/>
<path fill="#000000" opacity="1.000000" stroke="none" 
	d="
M83.468658,113.000000 
	C97.354378,103.766792 111.708755,94.533577 126.063133,85.300362 
	C126.403549,85.652824 126.743965,86.005287 127.084381,86.357758 
	C123.150742,95.015213 119.217110,103.672668 115.141739,112.665062 
	C104.645775,113.000000 94.291542,113.000000 83.468658,113.000000 
z"/>
<path fill="#000000" opacity="1.000000" stroke="none" 
	d="
M167.531342,1.000000 
	C167.222015,4.203049 164.049484,4.751781 161.885605,6.334320 
	C155.344971,11.117782 148.636093,15.671319 141.988739,20.308653 
	C141.301163,20.788328 140.576538,21.182678 139.259796,20.612810 
	C137.469162,14.617080 139.717545,8.055141 138.040802,1.411791 
	C147.687561,1.000000 157.375122,1.000000 167.531342,1.000000 
z"/>
<path fill="#000000" opacity="1.000000" stroke="none" 
	d="
M223.447540,77.619652 
	C226.304535,84.994621 231.940216,90.743500 233.247757,99.026337 
	C223.599564,99.680817 214.526794,99.498810 204.135345,99.153778 
	C208.744049,89.428062 214.180191,81.282150 219.149094,72.982864 
	C222.083084,73.361000 222.183533,75.768089 223.447540,77.619652 
z"/>
<path fill="#000000" opacity="1.000000" stroke="none" 
	d="
M302.078918,28.559227 
	C298.574005,22.467312 295.347809,16.696709 292.099304,10.886205 
	C298.482605,8.295693 302.519684,9.083678 306.426361,13.610641 
	C310.414368,18.231901 314.345245,22.905920 318.003479,28.879957 
	C312.369476,29.628807 307.383270,29.754963 302.078918,28.559227 
z"/>
</svg>