<?xml version="1.0" encoding="UTF-8" standalone="no"?>
<svg
   width="100%"
   height="100%"
   viewBox="0 0 300 300"
   version="1.1"
   xml:space="preserve"
   style="fill-rule:evenodd;clip-rule:evenodd;stroke-linejoin:round;stroke-miterlimit:2;"
   id="svg4"
   sodipodi:docname="1-1.svg"
   inkscape:version="1.3.2 (091e20e, 2023-11-25, custom)"
   xmlns:inkscape="http://www.inkscape.org/namespaces/inkscape"
   xmlns:sodipodi="http://sodipodi.sourceforge.net/DTD/sodipodi-0.dtd"
   xmlns="http://www.w3.org/2000/svg"
   xmlns:svg="http://www.w3.org/2000/svg"><defs
   id="defs4"><inkscape:path-effect
     effect="fillet_chamfer"
     id="path-effect5"
     is_visible="true"
     lpeversion="1"
     nodesatellites_param="F,0,0,1,0,5,0,1 @ F,0,0,1,0,5,0,1 @ F,0,0,1,0,5,0,1 @ F,0,0,1,0,5,0,1 | F,0,0,1,0,5,0,1 @ F,0,0,1,0,5,0,1 @ F,0,0,1,0,5,0,1 @ F,0,0,1,0,5,0,1"
     radius="5"
     unit="px"
     method="auto"
     mode="F"
     chamfer_steps="1"
     flexible="false"
     use_knot_distance="true"
     apply_no_radius="true"
     apply_with_radius="true"
     only_selected="false"
     hide_knots="false" /><inkscape:path-effect
     effect="fillet_chamfer"
     id="path-effect4"
     is_visible="true"
     lpeversion="1"
     nodesatellites_param="F,0,0,1,0,5,0,1 @ F,0,0,1,0,5,0,1 @ F,0,0,1,0,5,0,1 @ F,0,0,1,0,5,0,1"
     radius="5"
     unit="px"
     method="auto"
     mode="F"
     chamfer_steps="1"
     flexible="false"
     use_knot_distance="true"
     apply_no_radius="true"
     apply_with_radius="true"
     only_selected="false"
     hide_knots="false" /></defs><sodipodi:namedview
   id="namedview4"
   pagecolor="#505050"
   bordercolor="#eeeeee"
   borderopacity="1"
   inkscape:showpageshadow="0"
   inkscape:pageopacity="0"
   inkscape:pagecheckerboard="0"
   inkscape:deskcolor="#505050"
   inkscape:zoom="3.2016667"
   inkscape:cx="104.1645"
   inkscape:cy="118.21968"
   inkscape:window-width="3840"
   inkscape:window-height="2126"
   inkscape:window-x="-11"
   inkscape:window-y="-11"
   inkscape:window-maximized="1"
   inkscape:current-layer="svg4" />
    <g
   transform="matrix(1,0,0,1,-326,-317)"
   id="g4">
        <g
   id="Artboard3"
   transform="matrix(0.983607,0,0,1.08696,5.34426,-27.5652)">
            <path
   x="326"
   y="317"
   width="305"
   height="276"
   style="fill:none"
   id="rect1"
   inkscape:path-effect="#path-effect4"
   sodipodi:type="rect"
   d="m 331,317 h 295 a 5,5 45 0 1 5,5 v 266 a 5,5 135 0 1 -5,5 H 331 a 5,5 45 0 1 -5,-5 V 322 a 5,5 135 0 1 5,-5 z" />
            <clipPath
   id="_clip1">
                <rect
   x="326"
   y="317"
   width="305"
   height="276"
   id="rect2" />
            </clipPath>
            <g
   clip-path="url(#_clip1)"
   id="g3">
                <g
   transform="matrix(0.7625,0,0,0.92,326,317)"
   id="g2">
                    <path
   d="m 400,5 v 290 a 5,5 135 0 1 -5,5 H 5 A 5,5 45 0 1 0,295 V 5 A 5,5 135 0 1 5,0 h 390 a 5,5 45 0 1 5,5 z M 387,6 H 13 a 5,5 135 0 0 -5,5 v 278 a 5,5 45 0 0 5,5 h 374 a 5,5 135 0 0 5,-5 l 0,-278 a 5,5 45 0 0 -5,-5 z"
   style="fill:white;"
   id="path2"
   inkscape:path-effect="#path-effect5"
   inkscape:original-d="M400,-0L400,300L0,300L0,-0L400,-0ZM392,6L8,6L8,294L392,294L392,6Z" />
                </g>
            </g>
        </g>
    </g>
</svg>
